<svg width="267" height="36" viewBox="0 0 267 36" fill="none" xmlns="http://www.w3.org/2000/svg">
<path d="M73.626 0.0718762H73.3431C69.6057 0.0718762 67.5593 2.03213 67.5593 5.53444C67.5593 6.16499 67.9114 8.05663 68.7569 13.2382C68.8983 13.9374 68.4739 14.2184 67.9113 13.8688C66.2203 12.6796 64.0325 11.9771 61.917 11.9771C56.4162 11.9771 50.2114 16.7405 50.2114 24.0229C50.2114 31.0275 56.3471 35.9281 62.2724 35.9281C69.2537 35.9281 74.6854 31.0961 74.6854 24.0229V1.12061C74.6854 0.561939 74.1919 0.0718762 73.626 0.0718762ZM62.6244 30.2532C59.0285 30.2532 56.561 27.1723 56.561 23.951C56.561 20.4487 59.3114 17.5769 62.6244 17.5769C66.5723 17.5769 68.5496 20.7296 68.5496 23.951C68.5496 27.5938 66.3618 30.2532 62.6244 30.2532ZM89.4244 11.9771C82.4431 11.9771 77.0838 17.2306 77.0838 23.9543C77.0838 30.5374 82.6537 35.9314 89.4244 35.9314C96.1228 35.9314 101.765 30.6779 101.765 23.9543C101.765 17.1587 96.4748 11.9771 89.4244 11.9771ZM89.4244 30.2532C86.322 30.2532 83.4301 27.8029 83.4301 23.951C83.4301 20.3801 86.039 17.5769 89.4244 17.5769C93.4447 17.5769 95.4187 20.7296 95.4187 23.951C95.4187 27.3847 93.0894 30.2532 89.4244 30.2532ZM28.9845 9.10536C25.5301 9.10536 21.5788 7.21372 19.6049 10.8565C18.1244 13.3787 17.4894 17.7893 17.4894 22.2031C17.4894 27.3847 18.3349 30.887 19.8154 33.1968C20.7333 34.667 17.9105 35.1571 16.2886 35.1571C12.1268 35.1571 10.6463 31.5143 10.6463 28.2243C10.6463 22.6213 11.4227 16.1786 11.4227 14.0779C11.4227 10.226 10.7878 8.47482 7.68535 8.47482C5.5699 8.47482 3.31299 9.24585 1.97398 11.0656C0.634962 12.9573 0 11.3466 0 9.73591C0 5.32535 4.58291 1.61067 13.3276 1.61067C17.2756 1.61067 21.7203 2.3817 25.3162 2.3817C28.4187 2.3817 30.8861 1.82303 32.2975 0.702424C34.4854 -1.11734 35.5414 1.54206 35.5414 3.43371C35.5447 6.16499 33.2154 9.10536 28.9845 9.10536ZM254.659 12.0457C247.678 12.0457 242.319 17.2992 242.319 24.0229C242.319 30.606 247.889 36 254.659 36C261.358 36 267 30.7465 267 24.0229C267 17.2273 261.71 12.0457 254.659 12.0457ZM254.659 30.3251C251.557 30.3251 248.665 27.8748 248.665 24.0229C248.665 20.4519 251.274 17.6488 254.659 17.6488C258.68 17.6488 260.654 20.8015 260.654 24.0229C260.654 27.4533 258.324 30.3251 254.659 30.3251ZM47.7439 15.7571V23.951C47.7439 32.0044 43.4406 35.9281 36.8114 35.9281C29.9715 35.9281 25.4577 31.8671 25.4577 23.951V14.2151C25.4577 13.235 26.0927 12.6044 27.0797 12.6044H28.2081C30.113 12.6044 31.452 13.9341 31.452 15.7571V23.7419C31.452 28.4334 33.7089 30.2565 36.8837 30.2565C39.7756 30.2565 41.822 28.3648 41.822 23.7419V14.2184C41.822 13.2382 42.4569 12.6077 43.4439 12.6077H44.5724C46.6154 12.6077 47.7439 13.7283 47.7439 15.7571ZM240.131 23.4609V33.5464C240.131 34.5265 239.496 35.1571 238.509 35.1571H237.38C235.476 35.1571 234.137 33.8274 234.137 32.0044V23.951C234.137 19.2595 231.88 17.5083 228.567 17.5083C225.533 17.5083 223.418 19.2595 223.418 23.951V33.5464C223.418 34.5265 222.783 35.1571 221.796 35.1571H220.737C218.832 35.1571 217.493 33.8274 217.493 32.0044V1.052C217.493 0.49333 217.986 0 218.552 0H218.835C222.572 0 224.688 1.89164 224.688 5.25347C224.688 6.65505 224.194 8.6153 223.49 12.9573C223.349 13.6564 223.773 14.0093 224.336 13.5878C225.606 12.6077 227.649 11.9771 229.554 11.9771C235.969 11.9771 240.131 15.8976 240.131 23.4609ZM189.074 5.11299C189.074 7.00463 187.452 8.54342 185.62 8.54342C183.646 8.54342 182.024 7.00136 182.024 5.11299C182.024 3.08086 183.646 1.68255 185.62 1.68255C187.452 1.68255 189.074 3.22135 189.074 5.11299ZM179.201 24.8625C179.201 32.2167 174.476 36.0686 165.732 35.8562L162.419 35.7876C162.208 35.7876 161.994 35.5785 161.994 35.3662C161.994 35.1538 162.063 34.9447 162.419 34.8075C169.542 33.5464 173.489 29.4136 173.489 24.232C173.489 18.4884 170.035 15.339 163.616 15.339C158.468 15.339 156.141 19.0504 156.141 22.3436C156.141 24.8658 157.974 27.5252 161.218 27.8062C161.642 27.8062 161.78 27.5971 161.428 27.3161C160.089 25.9145 159.454 24.4443 159.454 22.9741C159.454 20.2429 161.57 18.8413 163.827 18.8413C167.495 18.8413 169.328 21.3635 169.328 24.2352C169.328 27.8062 166.577 31.7299 160.935 31.7299C155.717 31.7299 152.19 28.44 152.19 23.6047V3.71141C152.19 1.40158 153.602 0.0686085 155.928 0.0686085H164.741C171.44 0.0686085 175.108 2.73128 175.108 7.63191C175.108 10.2946 173.769 12.183 172.216 13.3754C171.654 13.6564 171.654 14.006 172.285 14.2151C176.802 15.8976 179.201 20.5206 179.201 24.8625ZM188.439 15.6885V33.4778C188.439 34.4579 187.804 35.0885 186.817 35.0885H185.758C183.853 35.0885 182.514 33.7588 182.514 31.9357V14.2184C182.514 13.1663 183.149 12.5391 184.136 12.5391H185.195C187.097 12.5358 188.439 13.8655 188.439 15.6885ZM143.446 24.5129L142.107 24.0229C141.544 23.8138 141.047 23.9543 140.626 24.4443C139.498 25.8459 137.807 26.4046 136.537 26.4046C134.75 26.4046 133.359 25.4767 132.579 23.9249L142.672 20.942C143.518 20.661 143.942 20.171 143.732 19.3313C143.169 15.829 139.994 13.0977 136.398 13.0977C131.322 13.0977 127.795 16.3877 127.795 21.1511C127.795 26.1236 131.464 30.0441 136.116 30.0441C138.372 30.0441 142.179 29.4136 144.084 25.9112C144.36 25.2121 144.081 24.722 143.446 24.5129ZM135.757 16.8091C137.589 16.8091 139.001 17.6488 139.211 18.9099L131.881 20.9877C131.878 20.8799 131.875 20.7689 131.875 20.6578C131.878 18.6289 133.711 16.8091 135.757 16.8091ZM125.39 4.90389H125.249C122.567 4.90389 121.087 6.2336 121.087 8.68718C121.087 9.24585 121.298 10.5788 122.005 14.2184C122.074 14.7084 121.722 14.9175 121.301 14.6398C120.172 13.8002 118.62 13.3101 117.139 13.3101C113.191 13.3101 108.819 16.6719 108.819 21.8535C108.819 26.8946 113.122 30.3283 117.353 30.3283C122.36 30.3283 126.167 26.8979 126.167 21.8535V5.60305C126.167 5.25347 125.815 4.90389 125.39 4.90389ZM117.633 26.3327C115.093 26.3327 113.26 24.0915 113.26 21.8503C113.26 19.3281 115.307 17.2992 117.633 17.2992C120.383 17.2992 121.794 19.5404 121.794 21.8503C121.794 24.3724 120.241 26.3327 117.633 26.3327ZM197.888 23.951C197.888 27.3128 200.707 30.2532 203.672 30.2532C205.576 30.2532 206.985 29.554 208.113 28.4334C209.311 27.1723 210.087 26.6823 212.133 27.8029C213.614 28.5739 214.107 29.835 213.12 31.2333C211.005 34.1737 208.044 35.8562 203.672 35.8562C196.759 35.8562 191.541 30.4623 191.541 23.951C191.541 17.2992 197.042 11.9739 203.672 11.9739C207.34 11.9739 210.936 13.3036 213.193 16.5968C214.252 18.067 213.617 19.3281 212.133 20.0991C210.087 21.1511 209.383 20.9387 208.113 19.4686C207.054 18.2075 205.787 17.5769 203.672 17.5769C200.497 17.5802 197.888 20.4487 197.888 23.951Z" fill="#FF7BAE"/>
</svg>
